<?xml version="1.0" encoding="UTF-8"?>
<!DOCTYPE svg PUBLIC "-//W3C//DTD SVG 1.1//EN" "http://www.w3.org/Graphics/SVG/1.1/DTD/svg11.dtd">
<!-- Creator: CorelDRAW 2021 (64-Bit Evaluation Version) -->
<svg xmlns="http://www.w3.org/2000/svg" xml:space="preserve" width="3.15892in" height="8.03041in" version="1.1" style="shape-rendering:geometricPrecision; text-rendering:geometricPrecision; image-rendering:optimizeQuality; fill-rule:evenodd; clip-rule:evenodd"
viewBox="0 0 3560.8 9052.05"
 xmlns:xlink="http://www.w3.org/1999/xlink"
 xmlns:xodm="http://www.corel.com/coreldraw/odm/2003">
 <defs>
  <style type="text/css">
   <![CDATA[
    .str0 {stroke:black;stroke-width:7.83;stroke-miterlimit:2.61313}
    .str1 {stroke:black;stroke-width:3.38;stroke-miterlimit:2.61313}
    .fil0 {fill:none}
    .fil1 {fill:#009933}
    .fil3 {fill:#2BA0FF}
    .fil11 {fill:#3300CC}
    .fil6 {fill:#660066}
    .fil8 {fill:#CC9933}
    .fil7 {fill:#CC99CC}
    .fil9 {fill:#E6E6E6}
    .fil10 {fill:#FF3399}
    .fil5 {fill:#FF3838}
    .fil12 {fill:#FF99CC}
    .fil4 {fill:#FFF157}
    .fil2 {fill:white}
   ]]>
  </style>
 </defs>
 <g id="Layer_x0020_1">
  <metadata id="CorelCorpID_0Corel-Layer"/>
  <path class="fil0 str0" d="M755.93 4198.85l-4.16 -414.83 -389.52 -1.19 0.02 -499.08 515.98 0 0 -163.08 -515.98 0 -0.02 -527.5 392.43 0 1.25 -400.77m-3.48 -628.42l-5.04 -417.24 -742.12 4.35 -1.36 -200.22 269.37 -256.91m391.52 -417.32l306.24 -266.22 189.57 -3.55 228.56 1.4 0.14 280.62 165.61 0.06 2.15 -285.04 748.57 2.26 1.77 1043 -898.34 5.35 0 256.15 2147.79 0.1 0 1120.64 -2149.77 0 2.76 689.1 98.25 -1.55 0 161.7 -98.94 2.24 -2.07 665.56 2149.77 0 0 1120.64 -2147.79 1.18 0.09 676.65 98.94 -1.55 0 163.08 -98.94 1.55 0.29 675.36 2147.41 0.79 0 1120.64 -2147.79 1.18 0 675.08 99.03 0.03 0 164.63 -98.94 0 -0.05 276.71 -411.93 -4.62 0 228.32 -634.96 0 0 -499.1 514.63 -2.6 0 -161.78 -514.63 0 0 -537.52 393.92 0 1.04 -390.48m0.3 -631.3l-2.77 -414.92 -392.49 0 0.02 -500.27 515.98 0 0 -163.08 -515.98 0 -0.02 -521.99 397.68 -3.41 2.33 -392.58"/>
  <polygon class="fil1 str0" points="1508.13,8383.1 1232.64,8383.08 1232.64,8440.94 1176.28,8441.37 1176.28,8547.73 1508.13,8547.73 "/>
  <rect class="fil2 str0" x="1120.47" y="8383.08" width="112.17" height="107.17"/>
  <rect class="fil2 str0" transform="matrix(-0.0208358 2.21014 2.93442 0.0171153 2755.41 7228.59)" width="57.99" height="62.01"/>
  <rect class="fil2 str0" transform="matrix(-0.011771 -2.21021 2.91741 -0.0051714 2758.9 1788.97)" width="57.99" height="62.01"/>
  <rect class="fil2 str0" transform="matrix(-0.00764308 2.21023 2.93447 -0.000400504 2756.39 4591.64)" width="57.99" height="62.01"/>
  <rect class="fil2 str0" x="362.25" y="7847.13" width="479.49" height="537.28"/>
  <rect class="fil2 str0" x="841.74" y="7847.13" width="155.47" height="436.38"/>
  <rect class="fil2 str0" x="1120.47" y="7847.13" width="288.63" height="535.94"/>
  <rect class="fil2 str0" x="362.25" y="5219.58" width="479.49" height="527.5"/>
  <rect class="fil2 str0" x="841.74" y="5219.58" width="155.47" height="428.44"/>
  <rect class="fil2 str0" x="1120.47" y="5219.58" width="288.63" height="526.18"/>
  <rect class="fil2 str0" x="362.25" y="2593.16" width="479.49" height="527.5"/>
  <rect class="fil2 str0" x="841.74" y="2593.16" width="155.47" height="428.44"/>
  <rect class="fil2 str0" x="1120.47" y="2593.16" width="288.63" height="526.18"/>
  <line class="fil0 str0" x1="1127.54" y1="6822.79" x2="755.93" y2= "6825.27" />
  <line class="fil0 str0" x1="1409.41" y1="6407.96" x2="841.74" y2= "6410.44" />
  <line class="fil0 str0" x1="1127.54" y1="7454.04" x2="755.93" y2= "7456.51" />
  <polygon class="fil1 str0" points="1508.13,5745.41 1232.64,5745.38 1232.64,5803.24 1176.28,5803.67 1176.28,5910.03 1508.13,5910.03 "/>
  <rect class="fil2 str0" x="1120.47" y="5745.38" width="112.17" height="107.17"/>
  <polygon class="fil1 str0" points="1508.13,3118.98 1232.64,3118.95 1232.64,3176.82 1176.28,3177.25 1176.28,3283.61 1508.13,3283.61 "/>
  <rect class="fil2 str0" x="1120.47" y="3118.95" width="112.17" height="107.17"/>
  <line class="fil0 str0" x1="1127.54" y1="4196.37" x2="755.93" y2= "4198.85" />
  <line class="fil0 str0" x1="1398.86" y1="3781.54" x2="841.74" y2= "3784.01" />
  <line class="fil0 str0" x1="1127.54" y1="4827.61" x2="755.93" y2= "4830.09" />
  <line class="fil0 str0" x1="1127.54" y1="1558.67" x2="755.93" y2= "1561.15" />
  <line class="fil0 str0" x1="1409.41" y1="1144.64" x2="747.41" y2= "1147.11" />
  <line class="fil0 str0" x1="1127.54" y1="2189.92" x2="755.93" y2= "2192.39" />
  <line class="fil0 str0" x1="2936.06" y1="7295.89" x2="3031.84" y2= "7295.89" />
  <line class="fil0 str0" x1="2936.06" y1="4658.19" x2="3031.84" y2= "4658.19" />
  <line class="fil0 str0" x1="2936.06" y1="1727.16" x2="3031.84" y2= "1727.16" />
  <path class="fil0 str0" d="M755.93 4198.85c-88.86,29.27 -170.87,98.21 -203.64,208.57m0.12 213.11c33.95,107.53 120.13,169.07 209.86,208.6"/>
  <path class="fil0 str0" d="M806.98 4291.07c-57.87,0.71 -189.42,45.86 -190.85,225.01 -1.43,179.15 159.31,227.32 210.37,216.64"/>
  <g id="_3006691356400">
   <path class="fil0 str0" d="M522.77 4385.12c-11.14,14.84 -23.46,55.5 -23.46,123.96 0,68.46 12.79,103.01 23.97,122.92l102.22 -43.98"/>
   <line class="fil0 str0" x1="516.47" y1="4386.47" x2="623.29" y2= "4447.37" />
  </g>
  <g id="_3006691359760">
   <line class="fil0 str1" x1="802.31" y1="4291.22" x2="813.65" y2= "4734.1" />
   <line class="fil0 str1" x1="807.61" y1="4291.22" x2="818.94" y2= "4734.1" />
   <line class="fil0 str1" x1="812.64" y1="4292.43" x2="823.97" y2= "4735.31" />
  </g>
  <path class="fil0 str0" d="M753.78 6827.97c-88.86,29.27 -170.87,98.21 -203.64,208.57m0.12 213.11c33.95,107.53 120.13,169.07 209.86,208.6"/>
  <path class="fil0 str0" d="M804.83 6920.2c-57.87,0.71 -189.42,45.86 -190.85,225.01 -1.43,179.15 159.31,227.32 210.37,216.64"/>
  <g id="_3006691360096">
   <path class="fil0 str0" d="M520.62 7014.25c-11.14,14.84 -23.46,55.5 -23.46,123.96 0,68.46 12.79,103.01 23.97,122.92l102.22 -43.98"/>
   <line class="fil0 str0" x1="514.31" y1="7015.59" x2="621.13" y2= "7076.49" />
  </g>
  <g id="_3006691360000">
   <line class="fil0 str1" x1="800.16" y1="6920.34" x2="811.49" y2= "7363.23" />
   <line class="fil0 str1" x1="805.46" y1="6920.35" x2="816.79" y2= "7363.23" />
   <line class="fil0 str1" x1="810.49" y1="6921.56" x2="821.82" y2= "7364.44" />
  </g>
  <path class="fil0 str0" d="M755.93 1561.15c-88.86,29.27 -170.87,98.21 -203.64,208.57m0.12 213.11c33.95,107.53 120.13,169.07 209.86,208.6"/>
  <path class="fil0 str0" d="M806.98 1653.37c-57.87,0.71 -189.42,45.86 -190.85,225.01 -1.43,179.15 159.31,227.32 210.37,216.64"/>
  <g id="_3006691359232">
   <path class="fil0 str0" d="M522.77 1747.42c-11.14,14.84 -23.46,55.5 -23.46,123.96 0,68.46 12.79,103.01 23.97,122.92l102.22 -43.98"/>
   <line class="fil0 str0" x1="516.47" y1="1748.77" x2="623.29" y2= "1809.67" />
  </g>
  <g id="_3006691359568">
   <line class="fil0 str1" x1="802.31" y1="1653.52" x2="813.65" y2= "2096.4" />
   <line class="fil0 str1" x1="807.61" y1="1653.52" x2="818.94" y2= "2096.4" />
   <line class="fil0 str1" x1="812.64" y1="1654.73" x2="823.97" y2= "2097.62" />
  </g>
  <rect class="fil2 str0" x="841.74" y="8632.97" width="155.47" height="415.16"/>
  <rect class="fil2 str0" x="841.74" y="5995.27" width="155.47" height="415.16"/>
  <rect class="fil2 str0" x="841.74" y="3368.85" width="155.47" height="415.16"/>
  <ellipse class="fil2 str0" cx="459.58" cy="474.37" rx="289.58" ry="286.8"/>
  <ellipse class="fil2 str0" cx="459.58" cy="474.37" rx="170.93" ry="169.29"/>
  <line class="fil0 str0" x1="1160.63" y1="425.16" x2="745.31" y2= "427.45" />
  <line class="fil0 str0" x1="479.77" y1="760.47" x2="482.05" y2= "1148.29" />
  <line class="fil0 str0" x1="1033.73" y1="425.86" x2="1033.78" y2= "843.93" />
  <polyline class="fil0 str0" points="1033.78,843.93 918.99,845.81 688.06,650.6 "/>
  <line class="fil0 str0" x1="1554.95" y1="792.14" x2="1554.95" y2= "919.42" />
  <line class="fil0 str0" x1="1409.41" y1="874.33" x2="1164.89" y2= "874.71" />
  <line class="fil0 str0" x1="1164.89" y1="919.79" x2="1164.89" y2= "567.25" />
  <line class="fil0 str0" x1="1389.34" y1="567.25" x2="1164.89" y2= "567.25" />
  <path class="fil0 str0" d="M661.99 808.43c-55.54,31.7 -119.8,50.07 -181.64,50.07"/>
  <line class="fil0 str0" x1="661.99" y1="808.43" x2="832.86" y2= "965.02" />
  <line class="fil0 str0" x1="832.86" y1="965.02" x2="837.63" y2= "1146.77" />
 </g>
 <g id="Rooms">
  <metadata id="CorelCorpID_1Corel-Layer"/>
  <g id="_3006691364320">
   <rect class="fil3 str0" x="3032.54" y="6586.08" width="524.34" height="479.41"/>
   <rect class="fil3 str0" x="3032.54" y="7228.59" width="524.34" height="479.41"/>
   <rect class="fil3 str0" x="1127.54" y="6586.08" width="524.34" height="479.41"/>
   <rect class="fil3 str0" x="1781.32" y="6586.08" width="524.34" height="479.41"/>
   <rect class="fil3 str0" x="1781.32" y="7228.59" width="524.34" height="479.41"/>
   <rect class="fil3 str0" x="1127.54" y="7228.59" width="524.34" height="479.41"/>
  </g>
  <g id="_3006691363360">
   <rect class="fil4 str0" x="3032.54" y="3948.38" width="524.34" height="479.41"/>
   <rect class="fil4 str0" x="3032.54" y="4590.9" width="524.34" height="479.41"/>
   <rect class="fil4 str0" x="1127.54" y="3948.38" width="524.34" height="479.41"/>
   <rect class="fil4 str0" x="1781.32" y="3948.38" width="524.34" height="479.41"/>
   <rect class="fil4 str0" x="1781.32" y="4590.9" width="524.34" height="479.41"/>
   <rect class="fil4 str0" x="1127.54" y="4590.9" width="524.34" height="479.41"/>
  </g>
  <g id="_3006691366768">
   <rect class="fil5 str0" x="3032.54" y="1310.68" width="524.34" height="479.41"/>
   <rect class="fil5 str0" x="3032.54" y="1953.2" width="524.34" height="479.41"/>
   <rect class="fil5 str0" x="1127.54" y="1310.68" width="524.34" height="479.41"/>
   <rect class="fil5 str0" x="1781.32" y="1310.68" width="524.34" height="479.41"/>
   <rect class="fil5 str0" x="1781.32" y="1953.2" width="524.34" height="479.41"/>
   <rect class="fil5 str0" x="1127.54" y="1953.2" width="524.34" height="479.41"/>
  </g>
  <rect class="fil6 str0" x="362.25" y="8549.04" width="236.72" height="499.1"/>
  <g id="_3006691366912">
   <rect class="fil7 str0" x="598.97" y="8549.04" width="242.77" height="499.1"/>
   <rect class="fil6" x="603.02" y="8552.25" width="235.22" height="80.72"/>
  </g>
  <g id="_3006691368016">
   <rect class="fil7 str0" x="598.97" y="5911.34" width="242.77" height="499.1"/>
   <rect class="fil6" x="603.02" y="5914.55" width="235.22" height="80.72"/>
  </g>
  <g id="_3006691367248">
   <rect class="fil7 str0" x="598.97" y="3284.91" width="242.77" height="499.1"/>
   <rect class="fil6" x="603.02" y="3288.13" width="235.22" height="80.72"/>
  </g>
  <rect class="fil6 str0" x="362.25" y="5911.34" width="236.72" height="499.1"/>
  <rect class="fil6 str0" x="362.25" y="3284.91" width="236.72" height="499.1"/>
  <rect class="fil8 str0" x="1651.88" y="6586.08" width="129.44" height="319.61"/>
  <rect class="fil8 str0" x="1651.88" y="3948.38" width="129.44" height="319.61"/>
  <rect class="fil8 str0" x="1651.88" y="1310.68" width="129.44" height="319.61"/>
  <rect class="fil8 str0" x="1160.63" y="6.87" width="228.71" height="418.29"/>
  <rect class="fil8 str0" x="1933.75" y="6.19" width="371.92" height="280.53"/>
  <rect class="fil8 str0" x="1554.94" y="286.72" width="378.8" height="280.53"/>
  <rect class="fil8 str0" x="1389.33" y="567.25" width="165.61" height="224.89"/>
  <rect class="fil8 str0" x="1933.75" y="286.72" width="371.92" height="280.53"/>
  <rect class="fil8 str0" x="1164.89" y="924.66" width="244.52" height="219.97"/>
  <rect class="fil8 str0" x="1405.93" y="874.43" width="149.01" height="179.81"/>
 </g>
 <g id="Doors">
  <metadata id="CorelCorpID_2Corel-Layer"/>
  <g id="_3006691370464">
   <path class="fil9 str0" d="M997.21 8722.96l0.28 60.9c41.99,0.22 61.68,-45.94 60.77,-61.17l0 0 -61.04 0.27z"/>
   <path class="fil9 str0" d="M1120.47 8722.41l0.28 60.9c-42.12,0.59 -62.29,-45.39 -61.52,-60.63l0 0 61.25 -0.27z"/>
  </g>
  <path class="fil9 str0" d="M3044.47 1789.77l-0.63 57.48c39.28,0.82 58.37,-42.47 57.74,-56.85l0 0 -57.11 -0.63z"/>
  <path class="fil9 str0" d="M3043.53 1953.51l-0.63 -56.84c39.28,-0.81 58.37,42 57.74,56.22l0 0 -57.11 0.62z"/>
  <path class="fil9 str0" d="M3044.47 4427.47l-0.63 57.48c39.28,0.82 58.37,-42.47 57.74,-56.85l0 0 -57.11 -0.63z"/>
  <g id="_3006691369216">
   <path class="fil9 str0" d="M946.3 2191.06l0.28 60.9c41.99,0.22 61.68,-45.94 60.77,-61.17l0 0 -61.04 0.27z"/>
   <path class="fil9 str0" d="M1069.56 2190.51l0.28 60.9c-42.12,0.59 -62.29,-45.39 -61.52,-60.63l0 0 61.25 -0.27z"/>
  </g>
  <g id="_3006691370656">
   <path class="fil9 str0" d="M1651.57 7054.5l-61.44 -0.3c-0.21,-41.99 46.38,-61.66 61.74,-60.74l0 0 -0.3 61.04z"/>
   <path class="fil9 str0" d="M1652.19 6931.24l-61.44 -0.3c-0.62,42.12 45.77,62.32 61.14,61.55l0 0 0.31 -61.25z"/>
  </g>
  <g id="_3006691369840">
   <path class="fil9 str0" d="M1781.63 7054.87l60.83 -0.3c0.2,-41.99 -45.92,-61.66 -61.13,-60.74l0 0 0.3 61.04z"/>
   <path class="fil9 str0" d="M1781.02 6931.61l60.83 -0.3c0.62,42.12 -45.32,62.32 -60.53,61.55l0 0 -0.3 -61.25z"/>
  </g>
  <g id="_3006691371808">
   <path class="fil9 str0" d="M997.21 5220.4l0.28 -61.44c41.99,-0.22 61.68,46.35 60.77,61.71l0 0 -61.04 -0.27z"/>
   <path class="fil9 str0" d="M1120.47 5220.95l0.28 -61.44c-42.12,-0.6 -62.29,45.8 -61.52,61.17l0 0 61.25 0.28z"/>
  </g>
  <path class="fil9 str0" d="M841.96 8560l-57.48 0c-0.39,39.29 43.11,57.9 57.48,57.12l0 0 0 -57.12z"/>
  <path class="fil9 str0" d="M598.97 8560.83l-57.48 0c-0.39,39.29 43.11,57.9 57.48,57.12l0 0 0 -57.12z"/>
  <g id="_3006691373584">
   <path class="fil9 str0" d="M997.21 7846.82l0.28 -61.44c41.99,-0.22 61.68,46.35 60.77,61.71l0 0 -61.04 -0.27z"/>
   <path class="fil9 str0" d="M1120.47 7847.37l0.28 -61.44c-42.12,-0.6 -62.29,45.8 -61.52,61.17l0 0 61.25 0.28z"/>
  </g>
  <g id="_3006691373344">
   <path class="fil9 str0" d="M946.3 4828.75l0.28 60.9c41.99,0.22 61.68,-45.94 60.77,-61.17l0 0 -61.04 0.27z"/>
   <path class="fil9 str0" d="M1069.56 4828.21l0.28 60.9c-42.12,0.59 -62.29,-45.39 -61.52,-60.63l0 0 61.25 -0.27z"/>
  </g>
  <g id="_3006691372048">
   <path class="fil9 str0" d="M997.21 2593.97l0.28 -61.44c41.99,-0.22 61.68,46.35 60.77,61.71l0 0 -61.04 -0.27z"/>
   <path class="fil9 str0" d="M1120.47 2594.52l0.28 -61.44c-42.12,-0.6 -62.29,45.8 -61.52,61.17l0 0 61.25 0.28z"/>
  </g>
  <g id="_3006691373968">
   <path class="fil9 str0" d="M1651.63 4412.8l-61.44 -0.3c-0.21,-41.99 46.38,-61.66 61.74,-60.74l0 0 -0.3 61.04z"/>
   <path class="fil9 str0" d="M1652.24 4289.53l-61.44 -0.3c-0.62,42.12 45.77,62.32 61.14,61.55l0 0 0.31 -61.25z"/>
  </g>
  <g id="_3006691372384">
   <path class="fil9 str0" d="M946.3 7455.18l0.28 60.9c41.99,0.22 61.68,-45.94 60.77,-61.17l0 0 -61.04 0.27z"/>
   <path class="fil9 str0" d="M1069.56 7454.63l0.28 60.9c-42.12,0.59 -62.29,-45.39 -61.52,-60.63l0 0 61.25 -0.27z"/>
  </g>
  <g id="_3006691371952">
   <path class="fil9 str0" d="M1781.68 4413.16l60.83 -0.3c0.2,-41.99 -45.92,-61.66 -61.13,-60.74l0 0 0.3 61.04z"/>
   <path class="fil9 str0" d="M1781.07 4289.9l60.83 -0.3c0.62,42.12 -45.32,62.32 -60.53,61.55l0 0 -0.3 -61.25z"/>
  </g>
  <g id="_3006691372144">
   <path class="fil9 str0" d="M1651.65 1778.1l-61.44 -0.3c-0.21,-41.99 46.38,-61.66 61.74,-60.74l0 0 -0.3 61.04z"/>
   <path class="fil9 str0" d="M1652.26 1654.84l-61.44 -0.3c-0.62,42.12 45.77,62.32 61.14,61.55l0 0 0.31 -61.25z"/>
  </g>
  <g id="_3006691372000">
   <path class="fil9 str0" d="M1781.7 1778.47l60.83 -0.3c0.2,-41.99 -45.92,-61.66 -61.13,-60.74l0 0 0.3 61.04z"/>
   <path class="fil9 str0" d="M1781.09 1655.21l60.83 -0.3c0.62,42.12 -45.32,62.32 -60.53,61.55l0 0 -0.3 -61.25z"/>
  </g>
  <path class="fil9 str0" d="M1640.04 7260.63l0.12 -57.49c-39.28,-0.47 -57.99,42.99 -57.24,57.37l0 0 57.12 0.12z"/>
  <path class="fil9 str0" d="M1792.37 7259.3l-0.12 -57.49c39.2,-0.47 57.87,42.99 57.11,57.37l0 0 -56.99 0.12z"/>
  <path class="fil9 str0" d="M1640.04 4622.93l0.12 -57.49c-39.28,-0.47 -57.99,42.99 -57.24,57.37l0 0 57.12 0.12z"/>
  <path class="fil9 str0" d="M1792.37 4621.6l-0.12 -57.49c39.2,-0.47 57.87,42.99 57.11,57.37l0 0 -56.99 0.12z"/>
  <path class="fil9 str0" d="M1640.04 1985.24l0.12 -57.49c-39.28,-0.47 -57.99,42.99 -57.24,57.37l0 0 57.12 0.12z"/>
  <path class="fil9 str0" d="M1792.37 1983.9l-0.12 -57.49c39.2,-0.47 57.87,42.99 57.11,57.37l0 0 -56.99 0.12z"/>
  <g id="_3006691375792">
   <path class="fil9 str0" d="M841.51 8435.38l70.74 0c-7.17,12.83 -16.65,32.96 -35.37,30.16 -16.88,2.94 -28.21,-15.95 -35.37,-30.16z"/>
   <path class="fil9 str0" d="M841.51 8495.58l70.74 0c-7.17,-12.78 -16.65,-32.82 -35.37,-30.04 -16.88,-2.93 -28.21,15.88 -35.37,30.04z"/>
  </g>
  <g id="_3006691376800">
   <path class="fil9 str0" d="M842.88 5798.47l70.74 0c-7.17,12.83 -16.65,32.96 -35.37,30.16 -16.88,2.94 -28.21,-15.95 -35.37,-30.16z"/>
   <path class="fil9 str0" d="M842.88 5858.67l70.74 0c-7.17,-12.78 -16.65,-32.82 -35.37,-30.04 -16.88,-2.93 -28.21,15.88 -35.37,30.04z"/>
  </g>
  <g id="_3006691389712">
   <path class="fil9 str0" d="M842.88 3172.04l70.74 0c-7.17,12.83 -16.65,32.96 -35.37,30.16 -16.88,2.94 -28.21,-15.95 -35.37,-30.16z"/>
   <path class="fil9 str0" d="M842.88 3232.24l70.74 0c-7.17,-12.78 -16.65,-32.82 -35.37,-30.04 -16.88,-2.93 -28.21,15.88 -35.37,30.04z"/>
  </g>
  <path class="fil9 str0" d="M841.51 8370.5l0.12 -57.49c-39.28,-0.47 -57.99,42.99 -57.24,57.37l0 0 57.12 0.12z"/>
  <path class="fil9 str0" d="M3044.47 7065.17l-0.63 57.48c39.28,0.82 58.37,-42.47 57.74,-56.85l0 0 -57.11 -0.63z"/>
  <path class="fil9 str0" d="M3043.53 7228.9l-0.63 -56.84c39.28,-0.81 58.37,42 57.74,56.22l0 0 -57.11 0.62z"/>
  <path class="fil9 str0" d="M2780.14 7063.05l-0.63 -56.84c39.28,-0.81 58.37,42 57.74,56.22l0 0 -57.11 0.62z"/>
  <path class="fil9 str0" d="M2955.18 7295.42l-0.62 57.48c39.28,0.81 58.36,-42.49 57.73,-56.87l0 0 -57.11 -0.61z"/>
  <path class="fil9 str0" d="M3043.53 4591.21l-0.63 -56.84c39.28,-0.81 58.37,42 57.74,56.22l0 0 -57.11 0.62z"/>
  <path class="fil9 str0" d="M2780.14 4425.35l-0.63 -56.84c39.28,-0.81 58.37,42 57.74,56.22l0 0 -57.11 0.62z"/>
  <path class="fil9 str0" d="M2955.18 4657.72l-0.62 57.48c39.28,0.81 58.36,-42.49 57.73,-56.87l0 0 -57.11 -0.61z"/>
  <path class="fil9 str0" d="M2780.14 1967.83l-0.63 56.22c39.28,0.8 58.37,-41.54 57.74,-55.61l0 0 -57.11 -0.62z"/>
  <path class="fil9 str0" d="M2955.18 1727.62l-0.62 -56.55c39.28,-0.79 58.36,41.8 57.73,55.95l0 0 -57.11 0.6z"/>
  <path class="fil9 str0" d="M1176.28 8547.73l-0.12 -57.49c39.2,-0.47 57.87,42.99 57.11,57.37l0 0 -56.99 0.12z"/>
  <path class="fil9 str0" d="M1176.28 5910.03l-0.12 -57.49c39.2,-0.47 57.87,42.99 57.11,57.37l0 0 -56.99 0.12z"/>
  <path class="fil9 str0" d="M1176.28 3283.61l-0.12 -57.49c39.2,-0.47 57.87,42.99 57.11,57.37l0 0 -56.99 0.12z"/>
  <g id="_3006691389280">
   <path class="fil9 str0" d="M946.3 1558.72l0.28 -61.44c41.99,-0.22 61.68,46.35 60.77,61.71l0 0 -61.04 -0.27z"/>
   <path class="fil9 str0" d="M1069.56 1559.27l0.28 -61.44c-42.12,-0.6 -62.29,45.8 -61.52,61.17l0 0 61.25 0.28z"/>
  </g>
  <g id="_3006691389424">
   <path class="fil9 str0" d="M946.3 4196.41l0.28 -61.44c41.99,-0.22 61.68,46.35 60.77,61.71l0 0 -61.04 -0.27z"/>
   <path class="fil9 str0" d="M1069.56 4196.96l0.28 -61.44c-42.12,-0.6 -62.29,45.8 -61.52,61.17l0 0 61.25 0.28z"/>
  </g>
  <g id="_3006691388656">
   <path class="fil9 str0" d="M946.3 6822.84l0.28 -61.44c41.99,-0.22 61.68,46.35 60.77,61.71l0 0 -61.04 -0.27z"/>
   <path class="fil9 str0" d="M1069.56 6823.39l0.28 -61.44c-42.12,-0.6 -62.29,45.8 -61.52,61.17l0 0 61.25 0.28z"/>
  </g>
  <g id="_3006691392208">
   <path class="fil9 str0" d="M995.99 6409.77l0.28 60.9c41.99,0.22 61.68,-45.94 60.77,-61.17l0 0 -61.04 0.27z"/>
   <path class="fil9 str0" d="M1119.26 6409.22l0.28 60.9c-42.12,0.59 -62.29,-45.39 -61.52,-60.63l0 0 61.25 -0.27z"/>
  </g>
  <g id="_3006691391392">
   <path class="fil9 str0" d="M996.89 3783.32l0.28 60.9c41.99,0.22 61.68,-45.94 60.77,-61.17l0 0 -61.04 0.27z"/>
   <path class="fil9 str0" d="M1120.15 3782.78l0.28 60.9c-42.12,0.59 -62.29,-45.39 -61.52,-60.63l0 0 61.25 -0.27z"/>
  </g>
  <path class="fil9 str0" d="M757.16 897l-40.29 41.01c-28.3,-27.26 -11.09,-71.33 -0.45,-81.04l0 0 40.74 40.03z"/>
  <g id="_3006691392400">
   <path class="fil9 str0" d="M945.21 1146.41l0.28 60.9c41.99,0.22 61.68,-45.94 60.77,-61.17l0 0 -61.04 0.27z"/>
   <path class="fil9 str0" d="M1068.48 1145.87l0.28 60.9c-42.12,0.59 -62.29,-45.39 -61.52,-60.63l0 0 61.25 -0.27z"/>
  </g>
  <path class="fil9 str0" d="M1389.65 150.3l-0.63 57.48c39.28,0.82 58.37,-42.47 57.74,-56.85l0 0 -57.11 -0.63z"/>
  <path class="fil9 str0" d="M479.74 778.94l0.62 57.48c-38.84,0.82 -57.72,-42.47 -57.1,-56.85l0 0 56.48 -0.63z"/>
  <g id="_3006691391056">
   <path class="fil9 str0" d="M687.6 651.37l-37.39 -48.06c-33.4,25.45 -20.81,74.04 -10.8,85.54l0 0 48.19 -37.48z"/>
   <path class="fil9 str0" d="M590.3 727.04l-37.39 -48.07c33,-26.18 77.05,-2.07 85.74,10.47l0 0 -48.35 37.6z"/>
  </g>
  <path class="fil9 str0" d="M1389.65 150.3l-0.63 57.48c39.28,0.82 58.37,-42.47 57.74,-56.85l0 0 -57.11 -0.63z"/>
  <g id="_3006691389808">
   <path class="fil9 str0" d="M1411.1 288.66l0.28 -61.44c41.99,-0.22 61.68,46.35 60.77,61.71l0 0 -61.04 -0.27z"/>
   <path class="fil9 str0" d="M1534.36 289.21l0.28 -61.44c-42.12,-0.6 -62.29,45.8 -61.52,61.17l0 0 61.25 0.28z"/>
  </g>
  <path class="fil9 str0" d="M1934.06 272.1l-0.62 -56.55c39.28,-0.79 58.36,41.8 57.73,55.95l0 0 -57.11 0.6z"/>
  <path class="fil9 str0" d="M1934.06 553.91l-0.62 -56.55c39.28,-0.79 58.36,41.8 57.73,55.95l0 0 -57.11 0.6z"/>
  <path class="fil9 str0" d="M1806.87 286.78l-0.12 -57.49c39.2,-0.47 57.87,42.99 57.11,57.37l0 0 -56.99 0.12z"/>
  <g id="_3006691390192">
   <path class="fil9 str0" d="M1725.58 567.52l0.28 60.9c41.99,0.22 61.68,-45.94 60.77,-61.17l0 0 -61.04 0.27z"/>
   <path class="fil9 str0" d="M1848.84 566.98l0.28 60.9c-42.12,0.59 -62.29,-45.39 -61.52,-60.63l0 0 61.25 -0.27z"/>
  </g>
  <path class="fil9 str0" d="M1405.57 566.94l-0.63 56.22c39.28,0.8 58.37,-41.54 57.74,-55.61l0 0 -57.11 -0.62z"/>
  <g id="_3006691392064">
   <path class="fil9 str0" d="M1254.55 566.98l0.28 -61.44c41.99,-0.22 61.68,46.35 60.77,61.71l0 0 -61.04 -0.27z"/>
   <path class="fil9 str0" d="M1377.81 567.53l0.28 -61.44c-42.12,-0.6 -62.29,45.8 -61.52,61.17l0 0 61.25 0.28z"/>
  </g>
  <path class="fil9 str0" d="M1180.11 874.94l-0.62 -56.55c39.28,-0.79 58.36,41.8 57.73,55.95l0 0 -57.11 0.6z"/>
  <path class="fil9 str0" d="M760.28 427.51l-0.62 -56.55c39.28,-0.79 58.36,41.8 57.73,55.95l0 0 -57.11 0.6z"/>
  <path class="fil9 str0" d="M1141.21 425.49l0.12 -57.49c-39.28,-0.47 -57.99,42.99 -57.24,57.37l0 0 57.12 0.12z"/>
  <g id="_3006691394464">
   <path class="fil9 str0" d="M481.84 4427.3l69.6 12.68c-9.35,11.33 -22.29,29.44 -40.21,23.33 -17.13,-0.13 -24.89,-20.74 -29.39,-36.01z"/>
   <path class="fil9 str0" d="M471.05 4486.52l69.6 12.68c-4.76,-13.86 -10.49,-35.28 -29.41,-35.89 -16.08,-5.91 -30.59,10.57 -40.18,23.21z"/>
  </g>
  <g id="_3006691394896">
   <path class="fil9 str0" d="M468.51 4544.98l69.58 -12.82c-4.73,13.92 -10.4,35.43 -29.33,36.07 -16.07,5.95 -30.63,-10.58 -40.25,-23.25z"/>
   <path class="fil9 str0" d="M479.41 4604.18l69.58 -12.82c-9.36,-11.27 -22.32,-29.26 -40.23,-23.13 -17.13,0.18 -24.86,20.72 -29.35,35.95z"/>
  </g>
  <g id="_3006691395712">
   <path class="fil9 str0" d="M582.15 4445.45l70.15 9.14c-8.76,11.79 -20.76,30.53 -38.97,25.34 -17.12,0.73 -25.91,-19.46 -31.18,-34.48z"/>
   <path class="fil9 str0" d="M574.37 4505.14l70.15 9.14c-5.45,-13.59 -12.27,-34.7 -31.19,-34.35 -16.36,-5.09 -30.02,12.1 -38.96,25.21z"/>
  </g>
  <g id="_3006691393120">
   <path class="fil9 str0" d="M582.15 4587.23l70.15 -9.12c-8.76,-11.76 -20.76,-30.46 -38.97,-25.28 -17.12,-0.73 -25.91,19.41 -31.18,34.4z"/>
   <path class="fil9 str0" d="M574.37 4527.68l70.15 -9.12c-5.45,13.56 -12.27,34.62 -31.19,34.27 -16.36,5.07 -30.02,-12.08 -38.96,-25.15z"/>
  </g>
  <g id="_3006691393408">
   <path class="fil9 str0" d="M580 7216.36l70.15 -9.12c-8.76,-11.76 -20.76,-30.46 -38.97,-25.28 -17.12,-0.73 -25.91,19.41 -31.18,34.4z"/>
   <path class="fil9 str0" d="M572.22 7156.81l70.15 -9.12c-5.45,13.56 -12.27,34.62 -31.19,34.27 -16.36,5.07 -30.02,-12.08 -38.96,-25.15z"/>
  </g>
  <g id="_3006691393216">
   <path class="fil9 str0" d="M479.69 7056.43l69.6 12.68c-9.35,11.33 -22.29,29.44 -40.21,23.33 -17.13,-0.13 -24.89,-20.74 -29.39,-36.01z"/>
   <path class="fil9 str0" d="M468.89 7115.65l69.6 12.68c-4.76,-13.86 -10.49,-35.28 -29.41,-35.89 -16.08,-5.91 -30.59,10.57 -40.18,23.21z"/>
  </g>
  <g id="_3006691394512">
   <path class="fil9 str0" d="M466.35 7174.11l69.58 -12.82c-4.73,13.92 -10.4,35.43 -29.33,36.07 -16.07,5.95 -30.63,-10.58 -40.25,-23.25z"/>
   <path class="fil9 str0" d="M477.26 7233.31l69.58 -12.82c-9.36,-11.27 -22.32,-29.26 -40.23,-23.13 -17.13,0.18 -24.86,20.72 -29.35,35.95z"/>
  </g>
  <g id="_3006691395520">
   <path class="fil9 str0" d="M580 7074.58l70.15 9.14c-8.76,11.79 -20.76,30.53 -38.97,25.34 -17.12,0.73 -25.91,-19.46 -31.18,-34.48z"/>
   <path class="fil9 str0" d="M572.22 7134.27l70.15 9.14c-5.45,-13.59 -12.27,-34.7 -31.19,-34.35 -16.36,-5.09 -30.02,12.1 -38.96,25.21z"/>
  </g>
  <g id="_3006691394608">
   <path class="fil9 str0" d="M481.84 1789.6l69.6 12.68c-9.35,11.33 -22.29,29.44 -40.21,23.33 -17.13,-0.13 -24.89,-20.74 -29.39,-36.01z"/>
   <path class="fil9 str0" d="M471.05 1848.82l69.6 12.68c-4.76,-13.86 -10.49,-35.28 -29.41,-35.89 -16.08,-5.91 -30.59,10.57 -40.18,23.21z"/>
  </g>
  <g id="_3006691398496">
   <path class="fil9 str0" d="M468.51 1907.28l69.58 -12.82c-4.73,13.92 -10.4,35.43 -29.33,36.07 -16.07,5.95 -30.63,-10.58 -40.25,-23.25z"/>
   <path class="fil9 str0" d="M479.41 1966.49l69.58 -12.82c-9.36,-11.27 -22.32,-29.26 -40.23,-23.13 -17.13,0.18 -24.86,20.72 -29.35,35.95z"/>
  </g>
  <g id="_3006691397200">
   <path class="fil9 str0" d="M582.15 1807.75l70.15 9.14c-8.76,11.79 -20.76,30.53 -38.97,25.34 -17.12,0.73 -25.91,-19.46 -31.18,-34.48z"/>
   <path class="fil9 str0" d="M574.37 1867.44l70.15 9.14c-5.45,-13.59 -12.27,-34.7 -31.19,-34.35 -16.36,-5.09 -30.02,12.1 -38.96,25.21z"/>
  </g>
  <g id="_3006691398880">
   <path class="fil9 str0" d="M582.15 1949.53l70.15 -9.12c-8.76,-11.76 -20.76,-30.46 -38.97,-25.28 -17.12,-0.73 -25.91,19.41 -31.18,34.4z"/>
   <path class="fil9 str0" d="M574.37 1889.98l70.15 -9.12c-5.45,13.56 -12.27,34.62 -31.19,34.27 -16.36,5.07 -30.02,-12.08 -38.96,-25.15z"/>
  </g>
 </g>
 <g id="Toilets">
  <metadata id="CorelCorpID_3Corel-Layer"/>
  <polygon class="fil10 str0" points="2751.07,7062.35 2752.88,6585.88 3032.54,6586.08 3028.71,7064.25 "/>
  <polygon class="fil11 str0" points="2751.07,4424.65 2752.88,3948.18 3032.54,3948.38 3028.71,4426.55 "/>
  <polygon class="fil10 str0" points="2754.91,2429.52 2756.72,1953.05 3036.37,1953.25 3032.54,2431.42 "/>
 </g>
 <g id="Elevators">
  <metadata id="CorelCorpID_4Corel-Layer"/>
  <rect class="fil12 str0" x="1120.47" y="5910.03" width="286.35" height="174.68"/>
  <rect class="fil12 str0" x="1120.47" y="3283.61" width="286.35" height="174.68"/>
  <rect class="fil12 str0" x="1120.47" y="8547.73" width="217.57" height="174.68"/>
 </g>
 <g id="Stairs">
  <metadata id="CorelCorpID_5Corel-Layer"/>
  <polygon class="fil1 str0" points="2756.51,1311.46 2758.03,1708.42 2855.04,1708.15 2856.08,1789.37 3034.42,1788.87 3032.54,1310.68 "/>
  <polygon class="fil1 str0" points="2751.07,7706.1 2754.21,7309.14 2851.79,7309.81 2853.17,7228.59 3032.54,7229.83 3028.71,7708 "/>
  <polygon class="fil1 str0" points="2754.9,5069.16 2755.67,4672.19 2853.25,4672.27 2854.14,4591.06 3033.52,4591.22 3032.54,5069.41 "/>
  <g id="_3006691400560">
   <line class="fil0 str1" x1="557.37" y1="1760.69" x2="624.94" y2= "1797.74" />
   <line class="fil0 str1" x1="557.93" y1="1752.46" x2="629.23" y2= "1791.43" />
   <line class="fil0 str1" x1="560.38" y1="1745.85" x2="631.92" y2= "1783.62" />
   <line class="fil0 str1" x1="563.66" y1="1737.6" x2="635.36" y2= "1774.78" />
   <line class="fil0 str1" x1="567.2" y1="1729.37" x2="639.3" y2= "1765.84" />
   <line class="fil0 str1" x1="571.12" y1="1720.96" x2="644.12" y2= "1756.21" />
   <line class="fil0 str1" x1="575.71" y1="1711.85" x2="648.99" y2= "1747.6" />
   <line class="fil0 str1" x1="580.2" y1="1703.61" x2="654.34" y2= "1739.15" />
   <line class="fil0 str1" x1="586.19" y1="1694.83" x2="660.29" y2= "1730.76" />
   <line class="fil0 str1" x1="591.41" y1="1685.28" x2="665.98" y2= "1723.53" />
   <line class="fil0 str1" x1="597.13" y1="1676.94" x2="671.38" y2= "1717.27" />
   <line class="fil0 str1" x1="603.65" y1="1668.1" x2="676.99" y2= "1711.33" />
   <line class="fil0 str1" x1="610.95" y1="1658.95" x2="681.86" y2= "1706.56" />
   <line class="fil0 str1" x1="619.84" y1="1648.71" x2="686.4" y2= "1700.34" />
   <line class="fil0 str1" x1="628.04" y1="1640.04" x2="694.19" y2= "1695.86" />
   <line class="fil0 str1" x1="638.29" y1="1630.08" x2="700.8" y2= "1690.83" />
   <line class="fil0 str1" x1="649.91" y1="1621.52" x2="706.55" y2= "1686.81" />
   <line class="fil0 str1" x1="659.54" y1="1612.09" x2="714.02" y2= "1682.01" />
   <line class="fil0 str1" x1="671.9" y1="1603.02" x2="723.37" y2= "1676.64" />
   <line class="fil0 str1" x1="686.25" y1="1593.59" x2="733.65" y2= "1671.48" />
   <line class="fil0 str1" x1="698.46" y1="1586.4" x2="743.52" y2= "1667.18" />
   <line class="fil0 str1" x1="712.06" y1="1579.2" x2="753.66" y2= "1663.39" />
   <line class="fil0 str1" x1="727.42" y1="1572.03" x2="762.25" y2= "1660.65" />
   <line class="fil0 str1" x1="742.35" y1="1565.95" x2="771.2" y2= "1658.24" />
   <line class="fil0 str1" x1="755.93" y1="1561.15" x2="778.71" y2= "1656.57" />
   <line class="fil0 str1" x1="773.9" y1="1561.03" x2="786.11" y2= "1655.24" />
   <line class="fil0 str1" x1="789.41" y1="1560.92" x2="794.09" y2= "1654.17" />
   <line class="fil0 str1" x1="803.67" y1="1560.83" x2="805.76" y2= "1653.39" />
  </g>
  <g id="_3006691400752">
   <line class="fil0 str1" x1="554.7" y1="1989.79" x2="627.42" y2= "1956.6" />
   <line class="fil0 str1" x1="556.82" y1="1995.74" x2="629.06" y2= "1961.48" />
   <line class="fil0 str1" x1="559.1" y1="2001.76" x2="629.58" y2= "1968.65" />
   <line class="fil0 str1" x1="564.69" y1="2009.76" x2="632.48" y2= "1975.53" />
   <line class="fil0 str1" x1="567.2" y1="2020.42" x2="637.68" y2= "1982.3" />
   <line class="fil0 str1" x1="571.34" y1="2028.75" x2="642.7" y2= "1992.05" />
   <line class="fil0 str1" x1="576.73" y1="2038.68" x2="647.97" y2= "2001.03" />
   <line class="fil0 str1" x1="581.61" y1="2046.92" x2="653.67" y2= "2009.69" />
   <line class="fil0 str1" x1="586.7" y1="2056.83" x2="660.13" y2= "2018.39" />
   <line class="fil0 str1" x1="594.22" y1="2065.74" x2="666.48" y2= "2026.07" />
   <line class="fil0 str1" x1="601.16" y1="2074.88" x2="672.53" y2= "2032.71" />
   <line class="fil0 str1" x1="608.96" y1="2084.36" x2="678.9" y2= "2039.09" />
   <line class="fil0 str1" x1="617.43" y1="2093.84" x2="684.69" y2= "2044.42" />
   <line class="fil0 str1" x1="626.71" y1="2103.39" x2="691.52" y2= "2050.19" />
   <line class="fil0 str1" x1="636.17" y1="2112.39" x2="698.86" y2= "2055.87" />
   <line class="fil0 str1" x1="646.97" y1="2121.85" x2="706.44" y2= "2061.22" />
   <line class="fil0 str1" x1="659.45" y1="2131.91" x2="713.29" y2= "2065.64" />
   <line class="fil0 str1" x1="672.12" y1="2137.53" x2="721.47" y2= "2070.45" />
   <line class="fil0 str1" x1="684.48" y1="2147.13" x2="731.58" y2= "2075.77" />
   <line class="fil0 str1" x1="698.82" y1="2157.12" x2="742.66" y2= "2080.85" />
   <line class="fil0 str1" x1="711.04" y1="2164.74" x2="753.05" y2= "2084.96" />
   <line class="fil0 str1" x1="724.64" y1="2172.36" x2="761.86" y2= "2087.96" />
   <line class="fil0 str1" x1="740" y1="2179.96" x2="769.91" y2= "2090.35" />
   <line class="fil0 str1" x1="754.93" y1="2186.4" x2="778.6" y2= "2092.5" />
   <line class="fil0 str1" x1="768.51" y1="2191.48" x2="786.33" y2= "2094.06" />
   <line class="fil0 str1" x1="786.48" y1="2191.61" x2="798.68" y2= "2091.83" />
   <line class="fil0 str1" x1="801.98" y1="2191.72" x2="806.66" y2= "2092.96" />
   <line class="fil0 str1" x1="816.25" y1="2191.82" x2="818.34" y2= "2093.79" />
  </g>
  <g id="_3006691404400">
   <line class="fil0 str1" x1="555.22" y1="7027.52" x2="622.79" y2= "7064.56" />
   <line class="fil0 str1" x1="555.78" y1="7019.28" x2="627.08" y2= "7058.25" />
   <line class="fil0 str1" x1="558.22" y1="7012.67" x2="629.77" y2= "7050.44" />
   <line class="fil0 str1" x1="561.51" y1="7004.42" x2="633.21" y2= "7041.61" />
   <line class="fil0 str1" x1="565.05" y1="6996.2" x2="637.15" y2= "7032.67" />
   <line class="fil0 str1" x1="568.97" y1="6987.78" x2="641.97" y2= "7023.04" />
   <line class="fil0 str1" x1="573.56" y1="6978.67" x2="646.83" y2= "7014.43" />
   <line class="fil0 str1" x1="578.05" y1="6970.43" x2="652.19" y2= "7005.97" />
   <line class="fil0 str1" x1="584.04" y1="6961.65" x2="658.13" y2= "6997.58" />
   <line class="fil0 str1" x1="589.26" y1="6952.11" x2="663.83" y2= "6990.35" />
   <line class="fil0 str1" x1="594.98" y1="6943.76" x2="669.23" y2= "6984.1" />
   <line class="fil0 str1" x1="601.5" y1="6934.93" x2="674.84" y2= "6978.16" />
   <line class="fil0 str1" x1="608.8" y1="6925.77" x2="679.71" y2= "6973.38" />
   <line class="fil0 str1" x1="617.69" y1="6915.53" x2="684.25" y2= "6967.17" />
   <line class="fil0 str1" x1="625.88" y1="6906.86" x2="692.04" y2= "6962.68" />
   <line class="fil0 str1" x1="636.14" y1="6896.9" x2="698.65" y2= "6957.65" />
   <line class="fil0 str1" x1="647.76" y1="6888.34" x2="704.39" y2= "6953.63" />
   <line class="fil0 str1" x1="657.39" y1="6878.92" x2="711.87" y2= "6948.84" />
   <line class="fil0 str1" x1="669.75" y1="6869.84" x2="721.22" y2= "6943.47" />
   <line class="fil0 str1" x1="684.09" y1="6860.41" x2="731.5" y2= "6938.3" />
   <line class="fil0 str1" x1="696.31" y1="6853.22" x2="741.37" y2= "6934.01" />
   <line class="fil0 str1" x1="709.91" y1="6846.03" x2="751.51" y2= "6930.21" />
   <line class="fil0 str1" x1="725.27" y1="6838.85" x2="760.1" y2= "6927.47" />
   <line class="fil0 str1" x1="740.2" y1="6832.77" x2="769.04" y2= "6925.07" />
   <line class="fil0 str1" x1="753.78" y1="6827.97" x2="776.56" y2= "6923.39" />
   <line class="fil0 str1" x1="771.75" y1="6827.85" x2="783.96" y2= "6922.06" />
   <line class="fil0 str1" x1="787.25" y1="6827.75" x2="791.93" y2= "6921" />
   <line class="fil0 str1" x1="801.52" y1="6827.65" x2="803.61" y2= "6920.22" />
  </g>
  <g id="_3006691405264">
   <line class="fil0 str1" x1="552.55" y1="7256.61" x2="625.27" y2= "7223.42" />
   <line class="fil0 str1" x1="554.66" y1="7262.56" x2="626.91" y2= "7228.31" />
   <line class="fil0 str1" x1="556.95" y1="7268.58" x2="627.42" y2= "7235.48" />
   <line class="fil0 str1" x1="562.54" y1="7276.58" x2="630.33" y2= "7242.35" />
   <line class="fil0 str1" x1="565.04" y1="7287.24" x2="635.53" y2= "7249.12" />
   <line class="fil0 str1" x1="569.19" y1="7295.57" x2="640.55" y2= "7258.88" />
   <line class="fil0 str1" x1="574.58" y1="7305.51" x2="645.81" y2= "7267.86" />
   <line class="fil0 str1" x1="579.45" y1="7313.75" x2="651.52" y2= "7276.52" />
   <line class="fil0 str1" x1="584.54" y1="7323.65" x2="657.97" y2= "7285.22" />
   <line class="fil0 str1" x1="592.07" y1="7332.56" x2="664.32" y2= "7292.89" />
   <line class="fil0 str1" x1="599" y1="7341.7" x2="670.38" y2= "7299.53" />
   <line class="fil0 str1" x1="606.81" y1="7351.19" x2="676.75" y2= "7305.91" />
   <line class="fil0 str1" x1="615.28" y1="7360.67" x2="682.54" y2= "7311.24" />
   <line class="fil0 str1" x1="624.56" y1="7370.22" x2="689.37" y2= "7317.02" />
   <line class="fil0 str1" x1="634.01" y1="7379.21" x2="696.71" y2= "7322.7" />
   <line class="fil0 str1" x1="644.81" y1="7388.68" x2="704.29" y2= "7328.04" />
   <line class="fil0 str1" x1="657.29" y1="7398.73" x2="711.14" y2= "7332.47" />
   <line class="fil0 str1" x1="669.97" y1="7404.36" x2="719.31" y2= "7337.28" />
   <line class="fil0 str1" x1="682.33" y1="7413.96" x2="729.43" y2= "7342.6" />
   <line class="fil0 str1" x1="696.67" y1="7423.95" x2="740.5" y2= "7347.68" />
   <line class="fil0 str1" x1="708.88" y1="7431.57" x2="750.9" y2= "7351.79" />
   <line class="fil0 str1" x1="722.49" y1="7439.18" x2="759.7" y2= "7354.79" />
   <line class="fil0 str1" x1="737.85" y1="7446.79" x2="767.76" y2= "7357.17" />
   <line class="fil0 str1" x1="752.78" y1="7453.22" x2="776.45" y2= "7359.33" />
   <line class="fil0 str1" x1="766.36" y1="7458.31" x2="784.18" y2= "7360.89" />
   <line class="fil0 str1" x1="784.33" y1="7458.43" x2="796.53" y2= "7358.66" />
   <line class="fil0 str1" x1="799.83" y1="7458.55" x2="804.51" y2= "7359.78" />
   <line class="fil0 str1" x1="814.1" y1="7458.64" x2="816.19" y2= "7360.61" />
  </g>
  <g id="_3006690995280">
   <line class="fil0 str1" x1="557.37" y1="4398.39" x2="624.94" y2= "4435.43" />
   <line class="fil0 str1" x1="557.93" y1="4390.15" x2="629.23" y2= "4429.13" />
   <line class="fil0 str1" x1="560.38" y1="4383.55" x2="631.92" y2= "4421.32" />
   <line class="fil0 str1" x1="563.66" y1="4375.3" x2="635.36" y2= "4412.48" />
   <line class="fil0 str1" x1="567.2" y1="4367.07" x2="639.3" y2= "4403.54" />
   <line class="fil0 str1" x1="571.12" y1="4358.65" x2="644.12" y2= "4393.91" />
   <line class="fil0 str1" x1="575.71" y1="4349.55" x2="648.99" y2= "4385.3" />
   <line class="fil0 str1" x1="580.2" y1="4341.31" x2="654.34" y2= "4376.84" />
   <line class="fil0 str1" x1="586.19" y1="4332.52" x2="660.29" y2= "4368.46" />
   <line class="fil0 str1" x1="591.41" y1="4322.98" x2="665.98" y2= "4361.22" />
   <line class="fil0 str1" x1="597.13" y1="4314.63" x2="671.38" y2= "4354.97" />
   <line class="fil0 str1" x1="603.65" y1="4305.8" x2="676.99" y2= "4349.03" />
   <line class="fil0 str1" x1="610.95" y1="4296.64" x2="681.86" y2= "4344.25" />
   <line class="fil0 str1" x1="619.84" y1="4286.4" x2="686.4" y2= "4338.04" />
   <line class="fil0 str1" x1="628.04" y1="4277.73" x2="694.19" y2= "4333.56" />
   <line class="fil0 str1" x1="638.29" y1="4267.77" x2="700.8" y2= "4328.52" />
   <line class="fil0 str1" x1="649.91" y1="4259.21" x2="706.55" y2= "4324.5" />
   <line class="fil0 str1" x1="659.54" y1="4249.79" x2="714.02" y2= "4319.71" />
   <line class="fil0 str1" x1="671.9" y1="4240.72" x2="723.37" y2= "4314.34" />
   <line class="fil0 str1" x1="686.25" y1="4231.29" x2="733.65" y2= "4309.18" />
   <line class="fil0 str1" x1="698.46" y1="4224.09" x2="743.52" y2= "4304.88" />
   <line class="fil0 str1" x1="712.06" y1="4216.9" x2="753.66" y2= "4301.09" />
   <line class="fil0 str1" x1="727.42" y1="4209.72" x2="762.25" y2= "4298.34" />
   <line class="fil0 str1" x1="742.35" y1="4203.65" x2="771.2" y2= "4295.94" />
   <line class="fil0 str1" x1="755.93" y1="4198.85" x2="778.71" y2= "4294.26" />
   <line class="fil0 str1" x1="773.9" y1="4198.73" x2="786.11" y2= "4292.93" />
   <line class="fil0 str1" x1="789.41" y1="4198.62" x2="794.09" y2= "4291.87" />
   <line class="fil0 str1" x1="803.67" y1="4198.53" x2="805.76" y2= "4291.09" />
  </g>
  <g id="_3006690998640">
   <line class="fil0 str1" x1="554.7" y1="4627.49" x2="627.42" y2= "4594.3" />
   <line class="fil0 str1" x1="556.82" y1="4633.43" x2="629.06" y2= "4599.18" />
   <line class="fil0 str1" x1="559.1" y1="4639.46" x2="629.58" y2= "4606.35" />
   <line class="fil0 str1" x1="564.69" y1="4647.45" x2="632.48" y2= "4613.22" />
   <line class="fil0 str1" x1="567.2" y1="4658.11" x2="637.68" y2= "4620" />
   <line class="fil0 str1" x1="571.34" y1="4666.45" x2="642.7" y2= "4629.75" />
   <line class="fil0 str1" x1="576.73" y1="4676.38" x2="647.97" y2= "4638.73" />
   <line class="fil0 str1" x1="581.61" y1="4684.62" x2="653.67" y2= "4647.39" />
   <line class="fil0 str1" x1="586.7" y1="4694.53" x2="660.13" y2= "4656.09" />
   <line class="fil0 str1" x1="594.22" y1="4703.44" x2="666.48" y2= "4663.77" />
   <line class="fil0 str1" x1="601.16" y1="4712.57" x2="672.53" y2= "4670.41" />
   <line class="fil0 str1" x1="608.96" y1="4722.06" x2="678.9" y2= "4676.78" />
   <line class="fil0 str1" x1="617.43" y1="4731.54" x2="684.69" y2= "4682.11" />
   <line class="fil0 str1" x1="626.71" y1="4741.09" x2="691.52" y2= "4687.89" />
   <line class="fil0 str1" x1="636.17" y1="4750.08" x2="698.86" y2= "4693.57" />
   <line class="fil0 str1" x1="646.97" y1="4759.55" x2="706.44" y2= "4698.91" />
   <line class="fil0 str1" x1="659.45" y1="4769.61" x2="713.29" y2= "4703.34" />
   <line class="fil0 str1" x1="672.12" y1="4775.23" x2="721.47" y2= "4708.15" />
   <line class="fil0 str1" x1="684.48" y1="4784.83" x2="731.58" y2= "4713.47" />
   <line class="fil0 str1" x1="698.82" y1="4794.82" x2="742.66" y2= "4718.55" />
   <line class="fil0 str1" x1="711.04" y1="4802.44" x2="753.05" y2= "4722.66" />
   <line class="fil0 str1" x1="724.64" y1="4810.06" x2="761.86" y2= "4725.66" />
   <line class="fil0 str1" x1="740" y1="4817.66" x2="769.91" y2= "4728.04" />
   <line class="fil0 str1" x1="754.93" y1="4824.09" x2="778.6" y2= "4730.2" />
   <line class="fil0 str1" x1="768.51" y1="4829.18" x2="786.33" y2= "4731.76" />
   <line class="fil0 str1" x1="786.48" y1="4829.3" x2="798.68" y2= "4729.53" />
   <line class="fil0 str1" x1="801.98" y1="4829.42" x2="806.66" y2= "4730.65" />
   <line class="fil0 str1" x1="816.25" y1="4829.52" x2="818.34" y2= "4731.48" />
  </g>
 </g>
</svg>
